<svg width="28" height="28" viewBox="0 0 28 28" fill="none" xmlns="http://www.w3.org/2000/svg">
<path d="M14 19.25C16.8995 19.25 19.25 16.8995 19.25 14C19.25 11.1005 16.8995 8.75 14 8.75C11.1005 8.75 8.75 11.1005 8.75 14C8.75 16.8995 11.1005 19.25 14 19.25Z" stroke="#DEA144" stroke-width="2" stroke-linecap="round" stroke-linejoin="round"/>
<path d="M21.5906 8.82651C21.8539 9.2035 22.0844 9.60235 22.2797 10.0187L25.1125 11.5937C25.4662 13.178 25.4699 14.8203 25.1234 16.4062L22.2797 17.9812C22.0844 18.3976 21.8539 18.7964 21.5906 19.1734L21.6453 22.4218C20.4447 23.5158 19.0238 24.34 17.4781 24.839L14.689 23.1656C14.2302 23.1984 13.7697 23.1984 13.3109 23.1656L10.5328 24.8281C8.98218 24.3382 7.55657 23.5172 6.35466 22.4218L6.40935 19.1843C6.14824 18.8021 5.91783 18.3998 5.72028 17.9812L2.88747 16.4062C2.53375 14.8219 2.53002 13.1796 2.87653 11.5937L5.72028 10.0187C5.9155 9.60235 6.14603 9.2035 6.40935 8.82651L6.35466 5.57808C7.55521 4.48407 8.97614 3.65986 10.5218 3.16089L13.3109 4.83433C13.7697 4.80151 14.2302 4.80151 14.689 4.83433L17.4672 3.17183C19.0178 3.66171 20.4434 4.48274 21.6453 5.57808L21.5906 8.82651Z" stroke="#DEA144" stroke-width="2" stroke-linecap="round" stroke-linejoin="round"/>
</svg>
