<svg width="23" height="23" viewBox="0 0 23 23" fill="none" xmlns="http://www.w3.org/2000/svg">
<path d="M11.9714 11.7194C13.4902 11.7194 14.7214 10.4881 14.7214 8.96936C14.7214 7.45058 13.4902 6.21936 11.9714 6.21936C10.4527 6.21936 9.22144 7.45058 9.22144 8.96936C9.22144 10.4881 10.4527 11.7194 11.9714 11.7194Z" stroke="white" stroke-width="0.8" stroke-linecap="round" stroke-linejoin="round"/>
<path d="M18.8464 8.96936C18.8464 15.1569 11.9714 19.9694 11.9714 19.9694C11.9714 19.9694 5.09644 15.1569 5.09644 8.96936C5.09644 7.146 5.82076 5.39731 7.11008 4.108C8.39939 2.81869 10.1481 2.09436 11.9714 2.09436C13.7948 2.09436 15.5435 2.81869 16.8328 4.108C18.1221 5.39731 18.8464 7.146 18.8464 8.96936V8.96936Z" stroke="white" stroke-width="0.8" stroke-linecap="round" stroke-linejoin="round"/>
</svg>
