<svg width="28" height="28" viewBox="0 0 28 28" fill="none" xmlns="http://www.w3.org/2000/svg">
<path d="M4.01407 18.9217L6.66095 3.92634C6.67945 3.81317 6.72029 3.70481 6.78109 3.60758C6.8419 3.51035 6.92145 3.4262 7.0151 3.36002C7.10876 3.29385 7.21466 3.24699 7.32661 3.22216C7.43857 3.19733 7.55435 3.19503 7.6672 3.2154L13.7047 4.27634C13.9328 4.31899 14.1351 4.44945 14.268 4.63966C14.401 4.82987 14.454 5.06465 14.4156 5.29353L11.7578 20.3763C11.5758 21.3919 11.0035 22.296 10.1633 22.8949C9.32318 23.4938 8.28196 23.7401 7.26251 23.581C5.08595 23.231 3.63126 21.0982 4.01407 18.9217Z" stroke="#DEA144" stroke-width="2" stroke-linecap="round" stroke-linejoin="round"/>
<path d="M12.939 13.6499L20.9125 10.7514C21.0209 10.7114 21.1361 10.6932 21.2516 10.698C21.3671 10.7028 21.4804 10.7303 21.5852 10.7792C21.6899 10.828 21.7839 10.897 21.8618 10.9824C21.9397 11.0677 22 11.1677 22.039 11.2764L24.139 17.0296C24.2165 17.2472 24.2048 17.4866 24.1064 17.6956C24.0081 17.9045 23.8311 18.0662 23.614 18.1452L9.22029 23.3842" stroke="#DEA144" stroke-width="2" stroke-linecap="round" stroke-linejoin="round"/>
<path d="M24.0625 17.7734V22.75C24.0625 22.9821 23.9703 23.2046 23.8062 23.3687C23.6421 23.5328 23.4196 23.625 23.1875 23.625H7.875" stroke="#DEA144" stroke-width="2" stroke-linecap="round" stroke-linejoin="round"/>
<path d="M7.875 21C8.59987 21 9.1875 20.4124 9.1875 19.6875C9.1875 18.9626 8.59987 18.375 7.875 18.375C7.15013 18.375 6.5625 18.9626 6.5625 19.6875C6.5625 20.4124 7.15013 21 7.875 21Z" fill="#DEA144"/>
</svg>
