<svg width="23" height="23" viewBox="0 0 23 23" fill="none" xmlns="http://www.w3.org/2000/svg">
<path d="M4.873 15.7427C3.84939 14.0158 3.49134 11.9745 3.86608 10.0022C4.24081 8.02997 5.32256 6.2623 6.90824 5.03109C8.49392 3.79987 10.4745 3.18977 12.4781 3.31534C14.4817 3.44091 16.3706 4.2935 17.7902 5.71306C19.2097 7.13261 20.0623 9.02151 20.1879 11.0251C20.3135 13.0288 19.7034 15.0093 18.4722 16.595C17.2409 18.1807 15.4733 19.2624 13.501 19.6372C11.5287 20.0119 9.48749 19.6539 7.7605 18.6302V18.6302L4.90738 19.4381C4.79048 19.4722 4.66654 19.4744 4.54855 19.4442C4.43056 19.414 4.32286 19.3526 4.23674 19.2665C4.15062 19.1804 4.08925 19.0727 4.05907 18.9547C4.02889 18.8367 4.031 18.7128 4.06519 18.5959L4.873 15.7427Z" stroke="white" stroke-width="0.8" stroke-linecap="round" stroke-linejoin="round"/>
<path d="M14.0425 16.3444C13.1379 16.3466 12.2418 16.1701 11.4056 15.825C10.5694 15.4799 9.80969 14.9729 9.17004 14.3333C8.53038 13.6936 8.02343 12.9339 7.6783 12.0977C7.33317 11.2615 7.15667 10.3654 7.15893 9.46079C7.16121 8.8241 7.41573 8.21426 7.86674 7.76486C8.31775 7.31546 8.92849 7.06312 9.56518 7.06313V7.06313C9.67023 7.06229 9.77356 7.08978 9.8643 7.14271C9.95504 7.19565 10.0298 7.27206 10.0808 7.36391L11.0863 9.11704C11.1461 9.22361 11.1768 9.34404 11.1752 9.46623C11.1737 9.58842 11.1401 9.70807 11.0777 9.81313L10.2699 11.1623C10.6836 12.0828 11.4205 12.8197 12.341 13.2334L13.6902 12.4256C13.7952 12.3632 13.9149 12.3296 14.0371 12.3281C14.1593 12.3266 14.2797 12.3572 14.3863 12.417L16.1394 13.4225C16.2313 13.4735 16.3077 13.5483 16.3606 13.639C16.4135 13.7298 16.441 13.8331 16.4402 13.9381C16.4379 14.5741 16.1849 15.1836 15.736 15.6341C15.287 16.0846 14.6785 16.3399 14.0425 16.3444V16.3444Z" stroke="white" stroke-width="0.8" stroke-linecap="round" stroke-linejoin="round"/>
</svg>
